<mxfile host="65bd71144e">
    <diagram id="hn-lwac6SuAFHTdOzXIv" name="Page-1">
        <mxGraphModel dx="1003" dy="743" grid="1" gridSize="10" guides="1" tooltips="1" connect="1" arrows="1" fold="1" page="1" pageScale="1" pageWidth="827" pageHeight="1169" math="0" shadow="0">
            <root>
                <mxCell id="0"/>
                <mxCell id="1" parent="0"/>
                <mxCell id="2" value="grid" style="html=1;" parent="1" vertex="1">
                    <mxGeometry x="350" y="810" width="110" height="50" as="geometry"/>
                </mxCell>
                <mxCell id="3" value="panel" style="html=1;" parent="1" vertex="1">
                    <mxGeometry x="550" y="810" width="110" height="50" as="geometry"/>
                </mxCell>
                <mxCell id="4" value="cursor" style="html=1;" parent="1" vertex="1">
                    <mxGeometry x="150" y="810" width="110" height="50" as="geometry"/>
                </mxCell>
                <mxCell id="19" value="board" style="html=1;" parent="1" vertex="1">
                    <mxGeometry x="349" y="680" width="110" height="50" as="geometry"/>
                </mxCell>
                <mxCell id="20" value="" style="endArrow=none;startArrow=diamondThin;endFill=0;startFill=1;html=1;verticalAlign=bottom;labelBackgroundColor=none;strokeWidth=1;startSize=8;endSize=8;exitX=0.5;exitY=1;exitDx=0;exitDy=0;" parent="1" source="19" target="2" edge="1">
                    <mxGeometry width="160" relative="1" as="geometry">
                        <mxPoint x="410" y="730" as="sourcePoint"/>
                        <mxPoint x="530" y="590" as="targetPoint"/>
                    </mxGeometry>
                </mxCell>
                <mxCell id="26" value="1" style="edgeLabel;html=1;align=left;verticalAlign=middle;resizable=0;points=[];" parent="20" vertex="1" connectable="0">
                    <mxGeometry x="-0.2658" y="4" relative="1" as="geometry">
                        <mxPoint x="2" y="-9" as="offset"/>
                    </mxGeometry>
                </mxCell>
                <mxCell id="27" value="1" style="edgeLabel;html=1;align=left;verticalAlign=middle;resizable=0;points=[];" parent="20" vertex="1" connectable="0">
                    <mxGeometry x="0.5256" y="3" relative="1" as="geometry">
                        <mxPoint x="2" as="offset"/>
                    </mxGeometry>
                </mxCell>
                <mxCell id="21" value="" style="endArrow=none;startArrow=diamondThin;endFill=0;startFill=1;html=1;verticalAlign=bottom;labelBackgroundColor=none;strokeWidth=1;startSize=8;endSize=8;exitX=0.5;exitY=1;exitDx=0;exitDy=0;entryX=0.5;entryY=0;entryDx=0;entryDy=0;" parent="1" source="19" target="4" edge="1">
                    <mxGeometry width="160" relative="1" as="geometry">
                        <mxPoint x="414" y="740" as="sourcePoint"/>
                        <mxPoint x="414.7619047619048" y="820" as="targetPoint"/>
                    </mxGeometry>
                </mxCell>
                <mxCell id="28" value="1" style="edgeLabel;html=1;align=center;verticalAlign=middle;resizable=0;points=[];" parent="21" vertex="1" connectable="0">
                    <mxGeometry x="-0.6083" y="1" relative="1" as="geometry">
                        <mxPoint x="-16" y="-6" as="offset"/>
                    </mxGeometry>
                </mxCell>
                <mxCell id="29" value="1" style="edgeLabel;html=1;align=center;verticalAlign=middle;resizable=0;points=[];" parent="21" vertex="1" connectable="0">
                    <mxGeometry x="0.1319" relative="1" as="geometry">
                        <mxPoint x="-81" y="15" as="offset"/>
                    </mxGeometry>
                </mxCell>
                <mxCell id="22" value="" style="endArrow=none;startArrow=diamondThin;endFill=0;startFill=1;html=1;verticalAlign=bottom;labelBackgroundColor=none;strokeWidth=1;startSize=8;endSize=8;exitX=0.5;exitY=1;exitDx=0;exitDy=0;entryX=0.5;entryY=0;entryDx=0;entryDy=0;" parent="1" source="19" target="3" edge="1">
                    <mxGeometry width="160" relative="1" as="geometry">
                        <mxPoint x="414" y="740" as="sourcePoint"/>
                        <mxPoint x="215" y="820" as="targetPoint"/>
                    </mxGeometry>
                </mxCell>
                <mxCell id="23" value="1" style="edgeLabel;html=1;align=center;verticalAlign=middle;resizable=0;points=[];" parent="22" vertex="1" connectable="0">
                    <mxGeometry x="-0.1914" y="-1" relative="1" as="geometry">
                        <mxPoint x="-24" y="-23" as="offset"/>
                    </mxGeometry>
                </mxCell>
                <mxCell id="24" value="0..*" style="edgeLabel;html=1;align=center;verticalAlign=middle;resizable=0;points=[];" parent="22" vertex="1" connectable="0">
                    <mxGeometry x="0.1931" y="-2" relative="1" as="geometry">
                        <mxPoint x="67" y="10" as="offset"/>
                    </mxGeometry>
                </mxCell>
                <mxCell id="30" value="game" style="html=1;" parent="1" vertex="1">
                    <mxGeometry x="349" y="560" width="110" height="50" as="geometry"/>
                </mxCell>
                <mxCell id="33" value="1" style="endArrow=none;html=1;endSize=12;startArrow=none;startSize=14;startFill=0;edgeStyle=orthogonalEdgeStyle;align=left;verticalAlign=middle;endFill=0;curved=1;" parent="1" source="30" target="19" edge="1">
                    <mxGeometry x="-0.7143" y="6" relative="1" as="geometry">
                        <mxPoint x="290" y="650" as="sourcePoint"/>
                        <mxPoint x="450" y="650" as="targetPoint"/>
                        <mxPoint as="offset"/>
                    </mxGeometry>
                </mxCell>
                <mxCell id="34" value="1..*" style="edgeLabel;html=1;align=left;verticalAlign=middle;resizable=0;points=[];" parent="33" vertex="1" connectable="0">
                    <mxGeometry x="0.7172" y="2" relative="1" as="geometry">
                        <mxPoint x="4" as="offset"/>
                    </mxGeometry>
                </mxCell>
                <mxCell id="43" value="menu" style="html=1;" parent="1" vertex="1">
                    <mxGeometry x="550" y="560" width="110" height="50" as="geometry"/>
                </mxCell>
                <mxCell id="44" value="env" style="html=1;" parent="1" vertex="1">
                    <mxGeometry x="350" y="440" width="110" height="50" as="geometry"/>
                </mxCell>
                <mxCell id="46" value="1" style="endArrow=none;html=1;endSize=12;startArrow=none;startSize=14;startFill=0;edgeStyle=orthogonalEdgeStyle;align=left;verticalAlign=middle;endFill=0;exitX=0.5;exitY=1;exitDx=0;exitDy=0;curved=1;" parent="1" source="44" edge="1">
                    <mxGeometry x="-0.7143" y="6" relative="1" as="geometry">
                        <mxPoint x="414" y="620" as="sourcePoint"/>
                        <mxPoint x="405" y="560" as="targetPoint"/>
                        <mxPoint as="offset"/>
                    </mxGeometry>
                </mxCell>
                <mxCell id="47" value="1" style="edgeLabel;html=1;align=left;verticalAlign=middle;resizable=0;points=[];" parent="46" vertex="1" connectable="0">
                    <mxGeometry x="0.7172" y="2" relative="1" as="geometry">
                        <mxPoint x="4" as="offset"/>
                    </mxGeometry>
                </mxCell>
                <mxCell id="48" value="1" style="endArrow=none;html=1;endSize=12;startArrow=none;startSize=14;startFill=0;edgeStyle=orthogonalEdgeStyle;align=left;verticalAlign=middle;endFill=0;exitX=0.75;exitY=1;exitDx=0;exitDy=0;entryX=0.5;entryY=0;entryDx=0;entryDy=0;rounded=0;" parent="1" source="44" target="43" edge="1">
                    <mxGeometry x="-0.9175" y="7" relative="1" as="geometry">
                        <mxPoint x="415" y="500" as="sourcePoint"/>
                        <mxPoint x="415" y="570" as="targetPoint"/>
                        <mxPoint as="offset"/>
                    </mxGeometry>
                </mxCell>
                <mxCell id="49" value="1" style="edgeLabel;html=1;align=left;verticalAlign=middle;resizable=0;points=[];" parent="48" vertex="1" connectable="0">
                    <mxGeometry x="0.7172" y="2" relative="1" as="geometry">
                        <mxPoint x="4" y="24" as="offset"/>
                    </mxGeometry>
                </mxCell>
            </root>
        </mxGraphModel>
    </diagram>
</mxfile>